<svg version="1.1" id="resturant" xmlns="http://www.w3.org/2000/svg" x="0" y="0" viewBox="0 0 128 128" style="enable-background:new 0 0 128 128" xml:space="preserve"><style>.st0{fill:#141414}.st0,.st1{display:none}.st2{display:inline;fill:#141414}</style><g id="row1"><path id="menu" d="M121.5 4.8H6.5C2.9 4.8 0 7.7 0 11.2v105.6c0 3.6 2.9 6.4 6.5 6.4h115c3.6 0 6.5-2.9 6.5-6.4V11.2c0-3.5-2.9-6.4-6.5-6.4zM4.3 116.8V11.2c0-1.2 1-2.1 2.2-2.1h55.3v109.8H6.5c-1.2 0-2.2-.9-2.2-2.1zm119.4 0c0 1.2-1 2.1-2.2 2.1H66.2V9.1h55.3c1.2 0 2.2 1 2.2 2.1v105.6zm-69-20.4H11.5c-1.2 0-2.2.9-2.2 2.1 0 1.2 1 2.1 2.2 2.1h43.2c1.2 0 2.2-1 2.2-2.1-.1-1.1-1-2.1-2.2-2.1zm0-15.9H11.5c-1.2 0-2.2 1-2.2 2.1 0 1.2 1 2.1 2.2 2.1h43.2c1.2 0 2.2-1 2.2-2.1-.1-1.2-1-2.1-2.2-2.1zm0-16H11.5c-1.2 0-2.2 1-2.2 2.1 0 1.2 1 2.1 2.2 2.1h43.2c1.2 0 2.2-.9 2.2-2.1-.1-1.1-1-2.1-2.2-2.1zm0-16H11.5c-1.2 0-2.2.9-2.2 2.1 0 1.2 1 2.1 2.2 2.1h43.2c1.2 0 2.2-1 2.2-2.1-.1-1.1-1-2.1-2.2-2.1zm0-15H11.5c-1.2 0-2.2.9-2.2 2.1 0 1.2 1 2.1 2.2 2.1h43.2c1.2 0 2.2-1 2.2-2.1-.1-1.1-1-2.1-2.2-2.1zm61.8 62.9H73.3c-1.2 0-2.2.9-2.2 2.1 0 1.2 1 2.1 2.2 2.1h43.2c1.2 0 2.2-1 2.2-2.1s-1-2.1-2.2-2.1zm0-15.9H73.3c-1.2 0-2.2 1-2.2 2.1 0 1.2 1 2.1 2.2 2.1h43.2c1.2 0 2.2-1 2.2-2.1 0-1.2-1-2.1-2.2-2.1zm0-16H73.3c-1.2 0-2.2 1-2.2 2.1 0 1.2 1 2.1 2.2 2.1h43.2c1.2 0 2.2-.9 2.2-2.1 0-1.1-1-2.1-2.2-2.1zm0-16H73.3c-1.2 0-2.2.9-2.2 2.1 0 1.2 1 2.1 2.2 2.1h43.2c1.2 0 2.2-1 2.2-2.1s-1-2.1-2.2-2.1zm0-15H73.3c-1.2 0-2.2.9-2.2 2.1 0 1.2 1 2.1 2.2 2.1h43.2c1.2 0 2.2-1 2.2-2.1s-1-2.1-2.2-2.1zM54.7 96.4H11.5c-1.2 0-2.2.9-2.2 2.1 0 1.2 1 2.1 2.2 2.1h43.2c1.2 0 2.2-1 2.2-2.1-.1-1.1-1-2.1-2.2-2.1zm0-15.9H11.5c-1.2 0-2.2 1-2.2 2.1 0 1.2 1 2.1 2.2 2.1h43.2c1.2 0 2.2-1 2.2-2.1-.1-1.2-1-2.1-2.2-2.1zm0-16H11.5c-1.2 0-2.2 1-2.2 2.1 0 1.2 1 2.1 2.2 2.1h43.2c1.2 0 2.2-.9 2.2-2.1-.1-1.1-1-2.1-2.2-2.1zm0-16H11.5c-1.2 0-2.2.9-2.2 2.1 0 1.2 1 2.1 2.2 2.1h43.2c1.2 0 2.2-1 2.2-2.1-.1-1.1-1-2.1-2.2-2.1zm0-15H11.5c-1.2 0-2.2.9-2.2 2.1 0 1.2 1 2.1 2.2 2.1h43.2c1.2 0 2.2-1 2.2-2.1-.1-1.1-1-2.1-2.2-2.1zm61.8 62.9H73.3c-1.2 0-2.2.9-2.2 2.1 0 1.2 1 2.1 2.2 2.1h43.2c1.2 0 2.2-1 2.2-2.1s-1-2.1-2.2-2.1zm0-15.9H73.3c-1.2 0-2.2 1-2.2 2.1 0 1.2 1 2.1 2.2 2.1h43.2c1.2 0 2.2-1 2.2-2.1 0-1.2-1-2.1-2.2-2.1zm0-16H73.3c-1.2 0-2.2 1-2.2 2.1 0 1.2 1 2.1 2.2 2.1h43.2c1.2 0 2.2-.9 2.2-2.1 0-1.1-1-2.1-2.2-2.1zm0-16H73.3c-1.2 0-2.2.9-2.2 2.1 0 1.2 1 2.1 2.2 2.1h43.2c1.2 0 2.2-1 2.2-2.1s-1-2.1-2.2-2.1zm0-15H73.3c-1.2 0-2.2.9-2.2 2.1 0 1.2 1 2.1 2.2 2.1h43.2c1.2 0 2.2-1 2.2-2.1s-1-2.1-2.2-2.1zM54.7 96.4H11.5c-1.2 0-2.2.9-2.2 2.1 0 1.2 1 2.1 2.2 2.1h43.2c1.2 0 2.2-1 2.2-2.1-.1-1.1-1-2.1-2.2-2.1zm0-15.9H11.5c-1.2 0-2.2 1-2.2 2.1 0 1.2 1 2.1 2.2 2.1h43.2c1.2 0 2.2-1 2.2-2.1-.1-1.2-1-2.1-2.2-2.1zm0-16H11.5c-1.2 0-2.2 1-2.2 2.1 0 1.2 1 2.1 2.2 2.1h43.2c1.2 0 2.2-.9 2.2-2.1-.1-1.1-1-2.1-2.2-2.1zm0-16H11.5c-1.2 0-2.2.9-2.2 2.1 0 1.2 1 2.1 2.2 2.1h43.2c1.2 0 2.2-1 2.2-2.1-.1-1.1-1-2.1-2.2-2.1zm61.8 47.9H73.3c-1.2 0-2.2.9-2.2 2.1 0 1.2 1 2.1 2.2 2.1h43.2c1.2 0 2.2-1 2.2-2.1s-1-2.1-2.2-2.1zm0-15.9H73.3c-1.2 0-2.2 1-2.2 2.1 0 1.2 1 2.1 2.2 2.1h43.2c1.2 0 2.2-1 2.2-2.1 0-1.2-1-2.1-2.2-2.1zm0-16H73.3c-1.2 0-2.2 1-2.2 2.1 0 1.2 1 2.1 2.2 2.1h43.2c1.2 0 2.2-.9 2.2-2.1 0-1.1-1-2.1-2.2-2.1zm0-16H73.3c-1.2 0-2.2.9-2.2 2.1 0 1.2 1 2.1 2.2 2.1h43.2c1.2 0 2.2-1 2.2-2.1s-1-2.1-2.2-2.1zm-61.8-15H11.5c-1.2 0-2.2.9-2.2 2.1 0 1.2 1 2.1 2.2 2.1h43.2c1.2 0 2.2-1 2.2-2.1-.1-1.1-1-2.1-2.2-2.1zm61.8 0H73.3c-1.2 0-2.2.9-2.2 2.1 0 1.2 1 2.1 2.2 2.1h43.2c1.2 0 2.2-1 2.2-2.1s-1-2.1-2.2-2.1z" style="fill:#141414"/></g></svg>